# xmcd
# Track frame offsets:
# 150
# 12866
# 26525
# 41453
# 57432
# 70781
# 85355
# 103191
# 119049
# 134985
# 156981
# 181262
#
# Disc length: 2632 seconds
# Revision: 0
# Processed by: cddbd v1.5.1PL0 Copyright (c) Steve Scherf et al.
# Submitted via: VisiTrax 2.9.10.220 - For more info visit www.synapsa.com
#
DISCID=ab0a460c
DTITLE=Various Artist - Ultimate Country Hits Volume 1
DYEAR=1900
DGENRE=
TTITLE0=Leann Rimes - Blue
TTITLE1=Tim McGraw - Indian Outlaw
TTITLE2=Jo Dee Messina - I'm Alright
TTITLE3=Steve Holy - Good Morning Beautiful
TTITLE4=Hal Ketchum - Small Town Saturday Night
TTITLE5=Sawyer Brown - Some Girls Do
TTITLE6=Wynonna - No One Else On Earth
TTITLE7=Lee Greenwood - God Bless The USA
TTITLE8=Jeff Carson - The Car
TTITLE9=Hank Williams Jr - America Will Survive
TTITLE10=The Judds - Love Can Build A Bridge
TTITLE11=David Kersh - If I Never Stop Loving You
EXTD=
EXTT0=
EXTT1=
EXTT2=
EXTT3=
EXTT4=
EXTT5=
EXTT6=
EXTT7=
EXTT8=
EXTT9=
EXTT10=
EXTT11=
PLAYORDER=
